# xmcd
#
# Track frame offsets:
#	150
#	13332
#	24892
#	38637
#	51097
#	65900
#	75287
#	84707
#	101720
#	113807
#	132105
#	143072
#	155205
#	167617
#	177055
#	189082
#
# Disc length: 2712 seconds
#
# Revision: 1
# Processed by: cddbd v1.5.1PL2 Copyright (c) Steve Scherf et al.
# Submitted via: audiograbber 1.83.01
#
DISCID=c80a9610
DTITLE=Adi Stahuber - 40 Jahre Isartaler Blasmusik
DYEAR=1900
DGENRE=Ethnic and Latin
TTITLE0=Alte Kameraden
TTITLE1=Im Hofbräuhaus geht's Bier net Aus
TTITLE2='s Loisachtal
TTITLE3=Tölzer Schützenmarsch
TTITLE4=Heute soll ein Glückstag sein
TTITLE5=Bayerischer Defiliermarsch
TTITLE6=Ein Sommer in den Bergen
TTITLE7=Mia san vom Woid dahoam
TTITLE8=Gruß an Malta
TTITLE9=Bayerische Landler
TTITLE10=Swinging Tirol
TTITLE11=Im Englischen Garten
TTITLE12=Gleissental Marsch
TTITLE13=Bayernpolka
TTITLE14=Storp Marsch
TTITLE15=Il Silenzio
EXTD=
EXTT0=
EXTT1=
EXTT2=
EXTT3=
EXTT4=
EXTT5=
EXTT6=
EXTT7=
EXTT8=
EXTT9=
EXTT10=
EXTT11=
EXTT12=
EXTT13=
EXTT14=
EXTT15=
PLAYORDER=
